<svg width="371" height="399" viewBox="0 0 371 399" fill="none" xmlns="http://www.w3.org/2000/svg">
<g clip-path="url(#clip0_1_11)">
<path d="M132.5 92.5C132.5 92.5 129.5 89.5 130.5 83C131.5 76.5 137.509 67.7631 142 58M132.5 92.5C132.5 92.5 165.644 87.9333 187 88C207.578 88.0643 239.5 92.5 239.5 92.5M132.5 92.5C132.5 92.5 112.362 96.9864 102 104.5C90.3954 112.914 79.5 133.5 79.5 133.5M142 58C150.175 50.0756 156.161 46.4844 167 43C173.235 40.9957 176.955 40.2485 183.5 40C191.778 39.6856 196.568 40.6101 204.5 43C213.948 45.8468 218.213 50.009 227 54.5M142 58C130.089 50.9706 111.5 40 111.5 40L96 24L93 11M227 54.5C229.343 58.0147 233 63.5 233 63.5C233 63.5 241.5 77 242 85C242.5 93 239.5 92.5 239.5 92.5M227 54.5C238.325 50.009 256 43 256 43L274 27L277.5 11M239.5 92.5C239.5 92.5 260.177 96.6288 270.5 104.5C278.096 110.292 286.5 123 286.5 123C286.5 123 293.5 131 297.5 138.5M79.5 133.5L70.5 174M79.5 133.5C79.5 133.5 54.5849 112.506 43 95.5C37.1912 86.9731 32.996 84.5 30 72.5C27.004 60.5 25.5 29.5 25.5 29.5M70.5 174V191C70.5 191 73.8521 216.598 76 233M70.5 174C70.5 174 59.8442 175.87 53.5 178.5C45.1439 181.964 40.7439 184.972 34 191C26.1092 198.054 19 208.5 17.5 212.5C16 216.5 13.5 225.5 12 238.5C10.5 251.5 10.5 278 10.5 278M76 233C83.6152 257.408 85.0883 272.148 95.5 295.5C107.57 322.571 119.633 341.5 135.5 360C151.367 378.5 151.462 378.705 165.5 384C173.491 387.014 178.462 388.186 187 388C197.995 387.76 204.249 385.085 214 380C224.818 374.359 229.5 368.752 238 360C249.593 348.064 254.585 339.854 263 325.5C272.726 308.909 283 280.5 283 280.5C283 280.5 291.228 250.94 296.5 232M76 233C66.5 242.5 62.8159 249.021 57.5 261C51.8717 273.683 50.5307 281.709 49 295.5C47.7076 307.144 47.5901 313.869 49 325.5C50.5788 338.524 53.5765 345.481 57.5 358C58.9773 362.714 61.5 370 61.5 370M296.5 232C298.453 210.716 301.5 177.5 301.5 177.5M296.5 232C300 237 302.99 242.455 306.5 249.5C310.559 257.647 312.544 262.391 315.5 271C318.715 280.362 320.716 285.685 322 295.5C323.292 305.374 322 321 322 321C320.243 330.958 319.257 336.542 317.5 346.5C315.743 356.458 310.5 369.5 310.5 369.5M301.5 177.5C301.5 177.5 300.5 146 297.5 138.5M301.5 177.5C301.5 177.5 312.141 178.261 318.5 180.5C329.956 184.535 336.066 189.396 343.5 199C349.92 207.294 352.743 212.37 354.5 223.5C356.257 234.63 357.243 240.87 359 252L360.5 278.5M297.5 138.5C305.115 128.346 309.737 122.909 317 112.5C324.841 101.262 330.77 95.6657 336 83C340.374 72.4069 341.364 65.8434 343 54.5C344.396 44.8195 344.5 29.5 344.5 29.5" stroke="black" stroke-width="20" stroke-linecap="round"/>
</g>
<defs>
<clipPath id="clip0_1_11">
<rect width="371" height="399" fill="white"/>
</clipPath>
</defs>
</svg>
