<svg width="608" height="332" viewBox="0 0 608 332" fill="none" xmlns="http://www.w3.org/2000/svg">
<g clip-path="url(#clip0_1_7)">
<path d="M370 218L380.5 184.5M380.5 184.5H425.5H469.5M380.5 184.5L395.64 138M380.5 184.5L322.5 189.5L259.5 199L211.5 209L195.5 213M457.5 141.5C457.5 141.5 454.5 126.5 447 102.5C439.5 78.5001 428.5 43.0001 425.5 43.0001C422.5 43 410 91 401.5 120C393 149 395.64 138 395.64 138M457.5 141.5L469.5 184.5M457.5 141.5C457.5 141.5 438.612 140.185 426.5 139.5C414.453 138.819 395.64 138 395.64 138M457.5 141.5C457.5 141.5 476.915 141 485.458 141.5C494 142 508.5 144 523.5 145.5C538.5 147 561.5 149.932 569.5 151.5C577.5 153.068 595 158 596.5 159.5C598 161 597.5 166 596.5 168C595.5 170 586.329 173.591 579.5 176.5C570.411 180.373 564.936 181.573 555.5 184.5C548.891 186.55 538.5 189.5 538.5 189.5M469.5 184.5L485.458 236M469.5 184.5L516 187.5L538.5 189.5M555.5 317H509.5L491.5 255.5L485.458 236M313.5 136C313.5 136 342.5 10.0001 347 10.0001C351.5 10 372.5 138 372.5 138M313.5 136C313.5 136 330.85 137.597 342 138C353.903 138.431 372.5 138 372.5 138M313.5 136C313.5 136 282.084 136.687 262 138C246.159 139.036 237.374 141.273 221.5 141.5C192.802 141.911 156.5 134 148.5 133C140.5 132 131.5 131.5 127 133C122.5 134.5 114.5 148 114.5 148M372.5 138H395.64M114.5 148L102.5 141.5L90 128.5L74 109.5L57 86.5001L46 72.5001M114.5 148L112 160M195.5 213C195.5 213 183 216.5 180.5 218C178 219.5 173 236.5 170 238C167 239.5 152 236 148.5 234.5C147.192 233.94 145.245 232.478 142.983 230.5M195.5 213C195.5 213 223.5 233 229 234.5M229 234.5C234.5 236 276 246 276 246L332 251.5H363.5C363.5 251.5 380.878 249.744 392 248.5M229 234.5C229 234.5 221.5 249 219 251.5C216.5 254 205 262 203.5 262.5C202 263 183 265.5 180.5 265.5C178 265.5 170 264.5 167.5 265.5C165 266.5 154 282 153 285C152 288 150 302.5 148.5 304.5C147 306.5 114.5 321.5 114.5 321.5M392 248.5C428.594 244.406 485.458 236 485.458 236M392 248.5L397 280L404 317L448.5 319M485.458 236C485.458 236 510.669 236.972 523.5 229C530.306 224.771 534.656 222.031 538.5 215C541.589 209.349 543.485 205.365 542.5 199C541.884 195.022 538.5 189.5 538.5 189.5M10 88.5001L30 103.5L53 122L71 135.5L92.5 152.5L112 160M112 160C112 160 109 163.5 109.5 172C110 180.5 110.582 187.555 114.5 196.5C118.699 206.087 123.453 210.262 130.5 218C134.521 222.416 139.193 227.184 142.983 230.5M78 265.5C78 265.5 123.5 265.5 126 264C128.5 262.5 138.5 238 138.5 238L142.983 230.5" stroke="black" stroke-width="20" stroke-linecap="round"/>
<path d="M156.5 176.5C154.562 172.355 153.037 169.653 149 167.5C145.345 165.551 142.48 164.851 138.5 166C135.272 166.931 132 169 131.5 171C131 173 131.442 176.923 132.5 180.5C133.992 185.542 135.483 188.607 139.5 192C143.655 195.51 147.498 199.136 152.5 197C156.092 195.467 157.375 192.74 158.5 189C159.924 184.266 158.594 180.978 156.5 176.5Z" stroke="black" stroke-width="15" stroke-linecap="round"/>
</g>
<defs>
<clipPath id="clip0_1_7">
<rect width="608" height="332" fill="white"/>
</clipPath>
</defs>
</svg>
