<svg width="381" height="384" viewBox="0 0 381 384" fill="none" xmlns="http://www.w3.org/2000/svg">
<g clip-path="url(#clip0_1_19)">
<path d="M174.667 57.4C160.8 62.0667 147.6 72.2 141.067 83.4C135.867 92.3333 132.667 104.067 132.667 114.867C132.667 123.267 133.067 124.867 135.733 127.4C138.8 130.333 139.333 130.333 190.133 130.333H241.6L244.4 127.267C246.8 124.733 247.333 122.6 247.333 115.533C247.333 91.2667 234.4 70.7333 212.667 60.4667C205.333 57 202.133 56.3333 192 56.0667C184.667 55.8 178 56.3333 174.667 57.4ZM211.733 66.2C223.333 71.8 231.867 80.3333 236.933 91.1333C240.4 98.4667 241.2 102.067 241.733 112.467L242.4 125H190H137.733L138.267 112.6C138.667 102.333 139.467 98.8667 142.933 91.4C152.267 71.5333 170.267 60.6 192.267 61.4C201.2 61.8 204.533 62.6 211.733 66.2Z" fill="black" fill-opacity="0.21"/>
<path d="M109.067 139C101.2 143 97.2 147.667 89.7333 161.933C68.8 202.067 67.0667 252.333 85.4667 294.867C92.6667 311.933 105.867 330.733 114.133 336.067C117.867 338.467 118 338.467 122.533 335.667C128.133 332.2 171.333 287.933 176.933 279.933C179.2 276.733 182.267 270.733 183.867 266.6C186.533 259.267 186.667 256.6 187.067 200.867C187.467 143.533 187.467 142.867 184.667 139.267L181.867 135.667H148.8C116.133 135.667 115.733 135.667 109.067 139ZM182 197.4C182 257.667 181.733 260.333 175.067 273.667C173.467 276.6 160.133 291.4 144.933 306.6L117.6 334.2L111.733 327.267C75.4667 284.867 67.6 219.533 92.6667 168.067C100 153.133 105.733 145.533 112 142.867C114.933 141.533 124.8 141.133 149.067 141H182V197.4Z" fill="black" fill-opacity="0.21"/>
<path d="M195.467 139.133C192.8 142.6 192.667 144.067 192.667 198.2C192.667 258.733 193.067 262.467 200.4 276.2C204.267 283.4 249.867 330.867 257.6 335.8C262.8 339 264.4 338.333 272.8 329.4C289.6 311.4 302.133 282.333 306.133 251.933C310.933 215.667 299.333 168.6 280.267 146.867C270.8 136.2 268.933 135.667 231.067 135.667H198.133L195.467 139.133ZM268 143.533C274.933 146.733 278 150.2 284.533 162.333C291.067 174.6 294.4 183.4 298.267 199C302.533 216.2 302.533 249.667 298.267 266.6C292.4 290.333 282 311.267 268.267 327.267L262.4 334.067L234.933 306.6C219.6 291.133 206.4 276.6 204.933 273.667C198.267 260.2 198 257.667 198 197.4V141H230.4C258.933 141 263.333 141.4 268 143.533Z" fill="black" fill-opacity="0.21"/>
<path d="M129.5 11C129 15 128.208 48 130 52C131.792 56 152 65 152 65M152 65C152 65 140.5 76.5 137 83C133.5 89.5 131.395 97.0263 130 106.5C128.578 116.159 130 131.5 130 131.5M152 65C152 65 161.238 58.3801 168 56C174.904 53.5701 179.184 53.2273 186.5 53C195.554 52.7187 200.812 53.4365 209.5 56C217.544 58.3736 229 65 229 65M229 65C229 65 247.5 56 249.5 53C251.5 50 251 15.5 250.5 11M229 65C229 65 237.884 75.3679 242 83C246.632 91.5899 248.815 96.8874 250.5 106.5C252.186 116.116 250.5 131.5 250.5 131.5M250.5 131.5C250.5 131.5 264.441 131.944 272 136C278.216 139.335 280.807 142.734 285.5 148C296.481 160.322 304 186 304 186M250.5 131.5H190.25M130 131.5C130 131.5 116.53 132.306 109 136C102.265 139.304 99.173 142.567 94 148C82.1964 160.397 75 187.5 75 187.5M130 131.5H190.25M304 186C304 186 346 175 348 173.5C350 172 370.5 133.5 370.5 133.5M304 186L309 212.5L312 233.5M312 233.5L305.5 274.5M312 233.5H370.5M305.5 274.5C305.5 274.5 298.977 295.741 292 308C282.676 324.383 261 345 261 345M305.5 274.5C305.5 274.5 348.5 289.5 350.5 291.5C352.5 293.5 370.5 330.5 370.5 330.5M261 345C261 345 233 372.5 191.5 373C150 373.5 119.5 345 119.5 345M261 345C261 345 222.471 310.602 202.5 284.5C197.528 278.001 190.25 267.5 190.25 267.5M119.5 345C119.5 345 97.6857 324.319 88 308C80.724 295.741 73.5 274.5 73.5 274.5M119.5 345C119.5 345 157.806 308.382 179 282C183.489 276.413 190.25 267.5 190.25 267.5M73.5 274.5L68.5 233.5M73.5 274.5C56.1217 280.163 33 287.5 30.5 289C28 290.5 11 326.5 11 326.5M68.5 233.5L71 212.5L75 187.5M68.5 233.5H11M75 187.5C75 187.5 32.5 173 30.5 171.5C28.5 170 11 133.5 11 133.5M190.25 131.5V267.5" stroke="black" stroke-width="20" stroke-linecap="round"/>
<path d="M188.4 276.6C187.067 277 184.267 279.667 182 282.733C179.867 285.667 166.933 299.267 153.467 312.867C140 326.6 128.267 339.133 127.333 340.867C125.067 345.267 127.467 349.267 135.2 354.2C168 375.267 209.333 375.667 242.8 355.533C251.333 350.333 254.533 346.2 253.2 342.067C252.667 340.467 240.133 326.867 225.333 311.8C210.533 296.6 197.733 283 196.8 281.4C194.933 277.8 191.6 275.933 188.4 276.6ZM192.8 283.933C193.733 286.467 206.8 300.733 222.267 316.467L250.133 344.6L244.933 347.933C236.667 353.533 227.2 357.933 216.667 361.267C202.267 365.667 177.733 365.667 163.333 361.267C152.8 357.933 143.333 353.533 135.067 347.933L129.867 344.6L157.733 316.467C173.2 300.733 186.267 286.467 187.2 283.933C188.267 281.667 189.467 279.667 190 279.667C190.533 279.667 191.733 281.667 192.8 283.933Z" fill="black" fill-opacity="0.21"/>
</g>
<defs>
<clipPath id="clip0_1_19">
<rect width="381" height="384" fill="white"/>
</clipPath>
</defs>
</svg>
