<svg width="267" height="199" viewBox="0 0 267 199" fill="none" xmlns="http://www.w3.org/2000/svg">
<g clip-path="url(#clip0_1_2)">
<path d="M39 94C39 94 25.5 93 21.5 90.5C17.5 88 10.5 84.5 9.49997 74C8.49997 63.5 12.5 50.5 12.5 50.5C12.5 50.5 15.7965 46.4903 18 44M39 94C39 94 51.6135 98.3871 60 98.5C67.9284 98.6067 74.5 95 80 95M39 94C39 94 40.8403 85.8272 41 80.5C41.2003 73.8183 40.9045 69.9076 39 63.5C37.4069 58.1403 36.8999 54.5068 33 50.5C28.5471 45.925 18 44 18 44M80 95C87.8105 95.781 90 95.5 100 97C110 98.5 117.5 100 117.5 100M80 95C82.3424 86.3883 83.2308 81.3913 84 72.5C84.7404 63.9404 85.7863 58.9038 84 50.5C82.4166 43.0512 79.9949 39.2659 76.5 32.5C73.5645 26.8172 68 18.5 68 18.5M117.5 100C117.5 100 126.85 107.741 133 112.5C137.633 116.085 139.867 118.677 145 121.5C149.949 124.222 158.5 126.692 158.5 126.692M117.5 100C117.5 100 121.155 94.2088 123.5 90.5C127.205 84.6393 129.752 81.626 133 75.5C136.483 68.9309 138.742 65.2245 140.5 58C142.122 51.3352 141.927 47.3588 142 40.5C142.083 32.668 140.5 20.5 140.5 20.5M203 164C200.5 163 194 159.5 194 159.5C194 159.5 183.9 153.258 178.5 148C171.896 141.571 164.5 129 164.5 129L158.5 126.692M203 164C204.953 169.077 204 170.5 208 177C212 183.5 219.5 185.5 224.5 187.5C229.5 189.5 235 189.497 237.5 188.5C240 187.503 245.257 182.793 249 178C252.817 173.112 254.985 170.014 256.5 164C258.027 157.941 257.195 154.21 256.5 148C255.878 142.443 253.5 134 253.5 134L251 129M203 164C203.623 161.982 206 159.5 206 159.5C206 159.5 210.909 158.405 214 157.5C219.395 155.92 222.556 155.176 227.5 152.5C232.411 149.842 234.903 147.795 239 144C244.503 138.902 251 129 251 129M251 129C251 129 254.455 118.419 254 111.5C253.558 104.781 251.63 101.198 249 95C246.474 89.0466 241 80.5 241 80.5C241 80.5 235.29 72.7474 230.5 69C226.094 65.5524 223.223 64.0055 218 62C215.521 61.048 211.5 60 211.5 60M211.5 60C211.5 60 215.21 70.7034 214 77.5C213.02 83.0048 210.579 85.5389 208 90.5C205.821 94.6903 204.597 97.0553 202 101C199.165 105.306 197.852 108.074 194 111.5C190.722 114.416 188.37 115.431 184.5 117.5C180.181 119.809 177.597 120.813 173 122.5C167.466 124.531 158.5 126.692 158.5 126.692M211.5 60C207.79 53.1658 202 42.5 202 42.5C202 42.5 194 34.5 188 31C182 27.5 177.093 25.0736 169.5 23C163.027 21.2322 152.5 20.5 152.5 20.5H140.5M140.5 20.5C140.5 20.5 126.5 13.5 123.5 12.5C120.5 11.5 104 9.99998 104 9.99998C104 9.99998 86.5 8.99999 84 9.99998C81.5 11 68 18.5 68 18.5M68 18.5C60.7753 18.1095 53.5 17 49.5 17.5C45.5 18 37 22 36 23C35 24 30.5147 30.0089 27 34.5C27 34.5 21.3865 40.1727 18 44" stroke="black" stroke-width="18" stroke-linecap="round"/>
</g>
<defs>
<clipPath id="clip0_1_2">
<rect width="267" height="199" fill="white"/>
</clipPath>
</defs>
</svg>
