<svg width="304" height="344" viewBox="0 0 304 344" fill="none" xmlns="http://www.w3.org/2000/svg">
<g clip-path="url(#clip0_1_2)">
<path d="M42.033 97.2785C42.033 97.2785 28.5145 96.5715 24.4612 94.1588C20.408 91.7462 13.3337 88.3988 12.1062 77.923C10.8787 67.4472 14.5958 54.3635 14.5958 54.3635C14.5958 54.3635 17.8045 50.2832 19.9535 47.7457M42.033 97.2785C42.033 97.2785 54.7388 101.391 63.1257 101.322C71.0546 101.257 77.5464 97.5082 83.0451 97.389M42.033 97.2785C42.033 97.2785 43.6956 89.0677 43.7398 83.7383C43.7951 77.0538 43.4146 73.1505 41.3715 66.7856C39.6626 61.4617 39.0769 57.8402 35.091 53.9188C30.5399 49.4416 19.9535 47.7457 19.9535 47.7457M83.0451 97.389C90.8707 98.0004 93.0536 97.6719 103.084 98.9547C113.114 100.237 120.645 101.574 120.645 101.574M83.0451 97.389C85.2002 88.7285 85.98 83.7134 86.5561 74.8075C87.1108 66.2339 88.0471 61.1757 86.079 52.8127C84.3345 45.4 81.8312 41.6681 78.1903 34.9796C75.1323 29.3618 69.3887 21.1672 69.3887 21.1672M120.645 101.574C120.645 101.574 130.161 109.111 136.412 113.735C141.122 117.219 143.412 119.762 148.605 122.473C153.612 125.087 162.214 127.371 162.214 127.371M120.645 101.574C120.645 101.574 124.173 95.7054 126.437 91.9465C130.015 86.0068 132.495 82.9391 135.61 76.744C138.949 70.1009 141.127 66.3464 142.728 59.0855C144.205 52.3871 143.924 48.4159 143.848 41.557C143.762 33.7251 141.915 21.5943 141.915 21.5943M207.513 163.705C204.992 162.759 198.417 159.401 198.417 159.401C198.417 159.401 188.185 153.38 182.671 148.24C175.93 141.955 168.263 129.548 168.263 129.548L162.214 127.371M207.513 163.705C209.575 168.738 208.653 170.182 212.794 176.593C216.934 183.005 224.475 184.842 229.517 186.733C234.56 188.624 240.058 188.502 242.536 187.451C245.014 186.4 250.167 181.577 253.806 176.704C257.516 171.734 259.615 168.59 261 162.545C262.395 156.454 261.482 152.741 260.653 146.548C259.911 141.006 257.35 132.617 257.35 132.617L254.742 127.672M207.513 163.705C208.091 161.674 210.414 159.141 210.414 159.141C210.414 159.141 215.299 157.94 218.369 156.968C223.729 155.271 226.872 154.459 231.758 151.676C236.61 148.912 239.057 146.812 243.07 142.929C248.462 137.713 254.742 127.672 254.742 127.672M254.742 127.672C254.742 127.672 257.967 117.019 257.362 110.111C256.774 103.404 254.769 99.863 252.005 93.7234C249.35 87.8262 243.693 79.4004 243.693 79.4004C243.693 79.4004 237.815 71.7735 232.946 68.1308C228.466 64.7796 225.562 63.2953 220.297 61.4036C217.797 60.5056 213.755 59.545 213.755 59.545M213.755 59.545C213.755 59.545 217.697 70.1654 216.634 76.9867C215.773 82.5115 213.388 85.0979 210.917 90.1138C208.83 94.3503 207.657 96.7414 205.147 100.741C202.406 105.108 201.152 107.903 197.376 111.412C194.162 114.399 191.832 115.465 188.009 117.617C183.741 120.019 181.179 121.079 176.62 122.865C171.131 125.016 162.214 127.371 162.214 127.371M213.755 59.545C209.898 52.7929 203.878 42.2552 203.878 42.2552C203.878 42.2552 195.706 34.4306 189.632 31.0616C183.557 27.6925 178.599 25.3731 170.962 23.4647C164.452 21.8378 153.912 21.334 153.912 21.334L141.915 21.5943M141.915 21.5943C141.915 21.5943 127.766 14.8996 124.745 13.9649C121.724 13.0302 105.196 11.8884 105.196 11.8884C105.196 11.8884 87.6783 11.2682 85.2005 12.3222C82.7228 13.3762 69.3887 21.1672 69.3887 21.1672M69.3887 21.1672C62.1572 20.9335 54.8595 19.9821 50.8713 20.5687C46.8831 21.1554 38.4719 25.3388 37.4938 26.3602C36.5157 27.3817 32.1618 33.4865 28.7453 38.0527C28.7453 38.0527 23.2563 43.8458 19.9535 47.7457" stroke="black" stroke-width="18" stroke-linecap="round"/>
<path d="M268.321 259.669C268.321 259.669 278.758 259.769 281.976 261.607C285.194 263.445 290.776 265.944 292.143 274.507C293.51 283.07 291.175 293.951 291.175 293.951C291.175 293.951 288.868 297.418 287.316 299.579M268.321 259.669C268.321 259.669 258.372 256.742 251.917 257.097C245.815 257.432 240.967 260.743 236.738 261.036M268.321 259.669C268.321 259.669 267.371 266.474 267.552 270.854C267.778 276.348 268.229 279.541 270.058 284.698C271.588 289.011 272.185 291.965 275.412 295.045C279.096 298.562 287.316 299.579 287.316 299.579M236.738 261.036C230.688 260.812 229.021 261.16 221.246 260.462C213.471 259.765 207.619 258.935 207.619 258.935M236.738 261.036C235.428 268.228 235.029 272.376 234.944 279.714C234.862 286.777 234.345 290.966 236.197 297.767C237.839 303.795 239.917 306.772 242.989 312.138C245.57 316.645 250.322 323.173 250.322 323.173M207.619 258.935C207.619 258.935 199.989 253.081 194.989 249.504C191.223 246.809 189.357 244.801 185.249 242.759C181.289 240.789 174.573 239.219 174.573 239.219M207.619 258.935C207.619 258.935 205.138 263.882 203.547 267.051C201.031 272.058 199.245 274.666 197.096 279.867C194.792 285.443 193.266 288.605 192.326 294.628C191.459 300.184 191.835 303.436 192.169 309.069C192.551 315.5 194.462 325.401 194.462 325.401M138.231 210.978C140.211 211.665 145.408 214.191 145.408 214.191C145.408 214.191 153.529 218.774 157.981 222.8C163.425 227.724 169.828 237.645 169.828 237.645L174.573 239.219M138.231 210.978C136.441 206.916 137.092 205.698 133.646 200.577C130.201 195.457 124.32 194.216 120.361 192.841C116.403 191.467 112.174 191.763 110.308 192.714C108.443 193.666 104.669 197.811 102.064 201.944C99.407 206.16 97.9171 208.817 97.0944 213.833C96.2656 218.887 97.1178 221.905 98.0057 226.963C98.8003 231.49 101.11 238.292 101.11 238.292L103.317 242.261M138.231 210.978C137.868 212.668 136.181 214.831 136.181 214.831C136.181 214.831 132.468 215.991 130.144 216.899C126.085 218.484 123.697 219.263 120.048 221.723C116.423 224.166 114.624 225.979 111.69 229.312C107.748 233.789 103.317 242.261 103.317 242.261M103.317 242.261C103.317 242.261 101.263 251.129 102.007 256.782C102.729 262.272 104.416 265.11 106.791 270.056C109.073 274.806 113.768 281.527 113.768 281.527C113.768 281.527 118.601 287.585 122.497 290.404C126.082 292.998 128.377 294.114 132.507 295.481C134.468 296.13 137.619 296.776 137.619 296.776M137.619 296.776C137.619 296.776 134.156 288.19 134.7 282.548C135.14 277.979 136.873 275.769 138.573 271.56C140.01 268.005 140.816 265.999 142.589 262.624C144.523 258.939 145.376 256.597 148.142 253.58C150.497 251.012 152.247 250.054 155.105 248.149C158.294 246.024 160.224 245.063 163.663 243.433C167.802 241.471 174.573 239.219 174.573 239.219M137.619 296.776C140.861 302.186 145.921 310.629 145.921 310.629C145.921 310.629 152.528 316.767 157.34 319.319C162.153 321.871 166.064 323.601 172.021 324.897C177.099 326.002 185.235 326.041 185.235 326.041L194.462 325.401M194.462 325.401C194.462 325.401 205.626 330.398 207.989 331.059C210.353 331.719 223.126 332.069 223.126 332.069C223.126 332.069 236.639 331.956 238.504 331.002C240.369 330.048 250.322 323.173 250.322 323.173M250.322 323.173C255.9 323.108 261.557 323.63 264.604 323.006C267.652 322.382 273.959 318.646 274.671 317.772C275.383 316.898 278.49 311.728 280.937 307.855C280.937 307.855 284.93 302.9 287.316 299.579" stroke="black" stroke-width="18" stroke-linecap="round"/>
</g>
<defs>
<clipPath id="clip0_1_2">
<rect width="301.944" height="341.714" fill="white" transform="translate(0.0515137 2.01117) rotate(-0.328362)"/>
</clipPath>
</defs>
</svg>
