<svg width="583" height="395" viewBox="0 0 583 395" fill="none" xmlns="http://www.w3.org/2000/svg">
<g clip-path="url(#clip0_1_16)">
<path d="M494.5 205L499.5 183.5M499.5 183.5L484 172L466 164.5M499.5 183.5C499.5 183.5 515 193 517 195.5C519 198 522.5 212 522.5 212M522.5 212C522.5 212 524.5 217.5 525.5 220C526.5 222.5 532.5 230 533 232.5C533.5 235 534.5 247.5 534 251C533.5 254.5 533 264.5 530.5 267.5C528 270.5 522.5 275 518.5 274.5C514.5 274 498.5 262.5 494.5 262.5C490.5 262.5 484 269.5 480.5 267.5C477 265.5 466 247.5 466 247.5M522.5 212L513.5 230M466 247.5C466 247.5 451.5 236.5 445.5 232.5M466 247.5L474 238.5M445.5 232.5C449.796 225.471 456.5 214.5 456.5 214.5M445.5 232.5C440 230 409 221 409 221M409 221C409 221 389 223.5 387.5 223C386 222.5 370 215 368.5 214.5M409 221C409 221 414 215 414.75 213C415.5 211 420.5 205 420.5 205M368.5 214.5C367 215.068 350 220 348.5 220C347 220 336 218 334 217.5M368.5 214.5C369.265 211.647 370.098 209 371.049 205C372 201 374 194 374 194M334 217.5C331.347 218.558 317 223 315 223C313 223 294.5 218.5 291 217.5M334 217.5C334.336 214.946 335.237 210.5 335.118 209C335 207.5 336.5 198.5 336.5 198.5M291 217.5C281.627 217.5 267 217.5 267 217.5M291 217.5C292.351 214.158 295 208.737 295.5 206.369C296 204 300.5 194 300.5 194M267 217.5C267 217.5 258.772 214.148 253.5 212M267 217.5C267 217.5 265.5 223 265 227C264.5 231 263 236.5 263 236.5M253.5 212C244.323 212 233.5 212 230 212M253.5 212C253 213.5 256.754 196.959 256.5 196.5M230 212C227.5 210 220.248 203.467 214 198M230 212C229.517 215.3 228.5 219 228.39 223C228.281 227 227 232.5 227 232.5M214 198C205.994 198 201.506 198 193.5 198M214 198C215.065 196.555 218.639 193 219.57 191.5C220.5 190 227 183.5 227 183.5M193.5 198C188.814 198 181.5 198 181.5 198L172 187.5M193.5 198C193.163 201.113 194 206.5 193.371 210.75C192.743 215 194 222.5 194 222.5M172 187.5L140 195.5M172 187.5L177.5 175.5M140 195.5H128M140 195.5L138.5 216.5M128 195.5L110 217.5M128 195.5C128 195.5 129.5 190 129 187C128.5 184 130 178.5 130 178.5M110 217.5L91 221.5L76.5 212L64.0001 198L67.0001 181.5M110 217.5L114 229.5M67.0001 181.5L73.5001 168.5L100 153.5L127 140.5M67.0001 181.5C67.0001 181.5 80.5001 184 82.5001 185.5C84.5001 187 91 194 91 194M67.0001 181.5L48.5001 174.5M127 140.5C127 140.5 148 128 151.5 126.5C155 125 161.5 123.5 165.5 124C169.5 124.5 174.033 125.524 179.5 126.5M127 140.5C127 140.5 129.895 143.395 131.75 145.25C133.605 147.105 136.5 150 136.5 150M179.5 126.5C183.5 125.5 195.5 120 201 120C206.5 120 233 126.5 233 126.5M179.5 126.5C179.751 127.924 181.664 131.15 183.292 134C185.141 137.237 188.5 142 188.5 142M233 126.5C233 126.5 258 128 260.5 128.5C263 129 273.5 134.934 276.5 137M233 126.5C233 126.5 235.5 133 237.25 135.75C239 138.5 241.5 145 241.5 145M276.5 137C282 138 306.5 145 306.5 145M276.5 137C275.914 142.077 278 152.5 278 152.5M306.5 145L336.5 147.5M306.5 145V153.75V162.5M336.5 147.5C336.5 147.5 350 144 356.5 145C363 146 383 150.5 387.5 151M336.5 147.5C336.5 147.5 337.5 151 337.75 155C338 159 339 162.5 339 162.5M387.5 151C391 151 401 147.5 404.5 147.5C408 147.5 425 152.5 425 152.5M387.5 151C387.5 152.523 388.5 153.75 389.102 157C389.704 160.25 391.782 162.485 393.5 166M425 152.5L442.5 155L466 164.5M425 152.5C425 152.5 427 159 429 162.25C431 165.5 433 172 433 172M466 164.5C466 164.5 466 170.5 467.25 174C468.5 177.5 468.5 183.5 468.5 183.5M181 198.5C181 198.5 175.5 208.5 173.25 210.75C171 213 165.5 223 165.5 223" stroke="black" stroke-width="20" stroke-linecap="round"/>
</g>
<defs>
<clipPath id="clip0_1_16">
<rect width="533.178" height="283.025" fill="white" transform="translate(62.9088 0.417542) rotate(12.8061)"/>
</clipPath>
</defs>
</svg>
